<svg xmlns="http://www.w3.org/2000/svg" viewBox="0 0 50 50"><defs><style>.cls-1{fill:#ed4c5c;}</style></defs><title>Ресурс 4</title><g id="Слой_2" data-name="Слой 2"><g id="Layer_1" data-name="Layer 1"><path class="cls-1" d="M50,15a15.63,15.63,0,0,0-31.14-1.25,5.82,5.82,0,0,1-1.69,3.38,5.72,5.72,0,0,1-3.38,1.68,15.54,15.54,0,0,0-9.2,4.47A15.7,15.7,0,0,0,0,35,15.61,15.61,0,0,0,15,50h.63a15.63,15.63,0,0,0,15.5-13.7,5.93,5.93,0,0,1,5.14-5.14A15.63,15.63,0,0,0,50,15ZM43.87,24a12.66,12.66,0,0,1-7.94,4.2,8.94,8.94,0,0,0-7.76,7.76A12.59,12.59,0,0,1,15.66,47h-.51a12.63,12.63,0,0,1-1-25.15,8.93,8.93,0,0,0,7.69-7.69A12.63,12.63,0,0,1,34.38,3h.5a12.64,12.64,0,0,1,9,21Z"/><path class="cls-1" d="M22.48,27.53a8.48,8.48,0,1,0,0,12A8.48,8.48,0,0,0,22.48,27.53Zm-2.69,6.85a2.93,2.93,0,1,1,0-4.15A2.95,2.95,0,0,1,19.79,34.38Z"/><path class="cls-1" d="M39.52,10.49a8.49,8.49,0,1,0,0,12A8.48,8.48,0,0,0,39.52,10.49Zm-5.14,9.29a2.93,2.93,0,1,1,0-4.14A2.93,2.93,0,0,1,34.38,19.78Z"/></g></g></svg>