<svg xmlns="http://www.w3.org/2000/svg" viewBox="0 0 50 50"><defs><style>.cls-1{fill:#ed4c5c;}</style></defs><title>Ресурс 1</title><g id="Слой_2" data-name="Слой 2"><g id="Layer_1" data-name="Layer 1"><path class="cls-1" d="M34.9,38.79c-3,.09,4-6.92,3.89-3.89-.08,2.79,4.15,6.84,4.15,6.84l-1.21,1.2S37.55,38.71,34.9,38.79Z"/><path class="cls-1" d="M39.62,43.3a2.6,2.6,0,1,1,3.68,0A2.6,2.6,0,0,1,39.62,43.3Z"/><path class="cls-1" d="M40,32.17c-2.78,1.72,0-8.77,1.57-5.84C43,29,49.27,30.55,49.27,30.55l-.49,1.82S42.47,30.64,40,32.17Z"/><path class="cls-1" d="M47.13,33.27a2.25,2.25,0,1,1,2.75-1.59A2.24,2.24,0,0,1,47.13,33.27Z"/><path class="cls-1" d="M41.8,23.3c-1.41,2.61-4-6.9-1.42-5.31,2.37,1.45,8-.18,8-.18l.44,1.65S43.06,21,41.8,23.3Z"/><path class="cls-1" d="M48.07,21.47a2.61,2.61,0,1,1,1.84-3.19A2.61,2.61,0,0,1,48.07,21.47Z"/><path class="cls-1" d="M38.72,15.56c.09,3.26-7.61-4.36-4.28-4.27C37.5,11.37,42,6.72,42,6.72l1.32,1.33S38.63,12.65,38.72,15.56Z"/><path class="cls-1" d="M43.24,9.93a2.25,2.25,0,1,1,0-3.18A2.25,2.25,0,0,1,43.24,9.93Z"/><path class="cls-1" d="M32,9.62c1.56,2.53-8,0-5.31-1.42,2.45-1.33,3.84-7,3.84-7l1.65.44S30.62,7.37,32,9.62Z"/><path class="cls-1" d="M33.56,3.28A2.6,2.6,0,1,1,31.72.09,2.61,2.61,0,0,1,33.56,3.28Z"/><path class="cls-1" d="M23.68,8.44C26.55,10,16.09,12.85,17.83,10c1.6-2.61-.19-8.8-.19-8.8L19.45.73S21.11,7.06,23.68,8.44Z"/><path class="cls-1" d="M21.06,1.71A2.25,2.25,0,1,1,18.31.12,2.24,2.24,0,0,1,21.06,1.71Z"/><path class="cls-1" d="M15.1,11.21c3-.09-4,6.92-3.89,3.89.08-2.79-4.15-6.84-4.15-6.84l1.21-1.2S12.45,11.29,15.1,11.21Z"/><circle class="cls-1" cx="8.53" cy="8.54" r="2.6"/><path class="cls-1" d="M10,17.83c2.77-1.72,0,8.77-1.57,5.84C7,21,.73,19.45.73,19.45l.49-1.82S7.52,19.36,10,17.83Z"/><path class="cls-1" d="M2.87,16.73A2.25,2.25,0,1,1,.12,18.32,2.24,2.24,0,0,1,2.87,16.73Z"/><path class="cls-1" d="M8.2,26.7c1.4-2.61,4,6.9,1.42,5.31-2.37-1.45-8,.18-8,.18l-.44-1.65S6.94,29,8.2,26.7Z"/><path class="cls-1" d="M1.93,28.53A2.61,2.61,0,1,1,.09,31.72,2.61,2.61,0,0,1,1.93,28.53Z"/><path class="cls-1" d="M11.28,34.44c-.1-3.26,7.61,4.36,4.28,4.27C12.5,38.63,8,43.28,8,43.28L6.71,42S11.37,37.35,11.28,34.44Z"/><path class="cls-1" d="M6.76,40.07a2.25,2.25,0,1,1,0,3.18A2.23,2.23,0,0,1,6.76,40.07Z"/><path class="cls-1" d="M18,40.38c-1.55-2.53,8,0,5.32,1.42-2.45,1.33-3.85,7-3.85,7l-1.64-.44S19.38,42.63,18,40.38Z"/><path class="cls-1" d="M16.44,46.72a2.6,2.6,0,1,1,1.84,3.19A2.6,2.6,0,0,1,16.44,46.72Z"/><path class="cls-1" d="M26.32,41.56C23.45,40,33.91,37.15,32.16,40c-1.6,2.61.2,8.8.2,8.8l-1.81.48S28.89,42.94,26.32,41.56Z"/><path class="cls-1" d="M28.94,48.29a2.25,2.25,0,1,1,2.75,1.59A2.24,2.24,0,0,1,28.94,48.29Z"/><path class="cls-1" d="M36.89,36.89a16.81,16.81,0,1,0-23.78,0A16.81,16.81,0,0,0,36.89,36.89ZM15.38,14.67a13.6,13.6,0,1,1,0,19.24A13.59,13.59,0,0,1,15.38,14.67Z"/><path class="cls-1" d="M29.39,18.38a2.2,2.2,0,1,1,3.11,0A2.18,2.18,0,0,1,29.39,18.38Z"/><path class="cls-1" d="M20.85,16a1.94,1.94,0,1,1,2.75,0A1.94,1.94,0,0,1,20.85,16Z"/><path class="cls-1" d="M13.54,24.82a2.06,2.06,0,1,1,2.91,0A2,2,0,0,1,13.54,24.82Z"/><path class="cls-1" d="M22.93,35.27a2.43,2.43,0,1,1,3.44,0A2.45,2.45,0,0,1,22.93,35.27Z"/><path class="cls-1" d="M31.51,27.73a2.4,2.4,0,1,1,3.39,0A2.39,2.39,0,0,1,31.51,27.73Z"/><path class="cls-1" d="M22.15,26.8a2.64,2.64,0,1,1,3.73,0A2.64,2.64,0,0,1,22.15,26.8Z"/></g></g></svg>