<svg xmlns="http://www.w3.org/2000/svg" viewBox="0 0 50 63.78"><defs><style>.cls-1{fill:#ed4c5c;}</style></defs><title>Ресурс 6</title><g id="Слой_2" data-name="Слой 2"><g id="Layer_1" data-name="Layer 1"><path class="cls-1" d="M40.88,14.72a3.9,3.9,0,0,0-.59-.71L32,6.36a3.17,3.17,0,0,0-.79-.54,3.61,3.61,0,0,0-4.31.74L11.78,22.94A3.61,3.61,0,0,0,11.22,27,3.35,3.35,0,0,0,12,28l4.83,4.46,1.95,1.79,1.5,1.4a3.72,3.72,0,0,0,1.09.69,3.61,3.61,0,0,0,4-.89l4.93-5.35,6.52-7,3.67-4A3.61,3.61,0,0,0,40.88,14.72ZM14.07,27a2.69,2.69,0,0,0-.26.33l-.64-.6a1.82,1.82,0,0,1-.59-1.23v-.06a1.79,1.79,0,0,1,.48-1.35L28.18,7.75a1.82,1.82,0,0,1,1.37-.6,2.58,2.58,0,0,1,.39,0,1.77,1.77,0,0,1,.88.45l.61.57L26,14.15h0l-1.82,2L22.6,17.79l0,0Z"/><path class="cls-1" d="M45.38,9.85l-4.5,4.87L35.09,21l-2.62,2.84-8.34-7.7,1.82-2h0l5.47-5.94-.61-.57a1.77,1.77,0,0,0-.88-.45l1.27-1.37L35.73.92A2.87,2.87,0,0,1,39.79.77l5.43,5A2.89,2.89,0,0,1,45.38,9.85Z"/><path class="cls-1" d="M26.79,21.7l-1.37,1.49-8.6,9.31-2.75,3a1.67,1.67,0,0,1-2.35.09L8.4,32.51a1.67,1.67,0,0,1-.1-2.35L11.22,27l1.36-1.47a1.82,1.82,0,0,0,.59,1.23l.64.6a2.69,2.69,0,0,1,.26-.33l8.5-9.22.05.05h0Z"/><path class="cls-1" d="M22.52,35.13l-4.06,4.4a1.66,1.66,0,0,1-2.35.1h0a1.66,1.66,0,0,1-.1-2.35l4.06-4.4Z"/><path class="cls-1" d="M44.26,52.3H10.07a5.74,5.74,0,1,0,0,11.48H44.26a5.74,5.74,0,0,0,0-11.48Zm-2.83,8.46H13.55a2.72,2.72,0,1,1,0-5.43H41.43a2.72,2.72,0,1,1,0,5.43Z"/><path class="cls-1" d="M28.41,55.33l2.81-3.49L20.55,48.68,6.43,36.9a3.92,3.92,0,1,0-5,6L16.29,55.33Z"/><polygon class="cls-1" points="22.8 60.76 23.54 61.38 24.04 60.76 22.8 60.76"/><path class="cls-1" d="M45.45,52.41c0-6.23-1.12-19.38-8.63-29.32A24.06,24.06,0,0,0,35.09,21c-.43-.5-.9-1-1.39-1.47-3.17-3.09-5.81-4.79-7.74-5.37h0l-1.82,2L22.6,17.79s0,0,0,.07h0a17.09,17.09,0,0,0,2.8,5.32c.47.64,1,1.3,1.57,2a24.38,24.38,0,0,1,3.31,5c3.89,7.93.93,15.23-3,20.54-.42.56-.84,1.1-1.27,1.61a40.7,40.7,0,0,1-2.82,3H41.43a2.7,2.7,0,0,1,2,.9L45.36,56S45.48,54.64,45.45,52.41Zm-9.24-6.77c1.85-7.33-.81-14.86-2.76-18.59l1.85-2c4.81,6.62,5.75,15,5.94,20.61Z"/></g></g></svg>