<svg xmlns="http://www.w3.org/2000/svg" viewBox="0 0 50 22.37"><defs><style>.cls-1{fill:#ed4c5c;}</style></defs><title>Ресурс 2</title><g id="Слой_2" data-name="Слой 2"><g id="Layer_1" data-name="Layer 1"><path class="cls-1" d="M50,21.16c0,.79-.81,1.21-1.81,1.21-6.78,0-10.14-5.42-13.11-10.19C32.25,7.63,29.81,3.7,25,3.7s-7.25,3.93-10.08,8.48C12,17,8.59,22.37,1.81,22.37.81,22.37,0,22,0,21.16S.81,20,1.81,20c4.8,0,7.23-3.92,10-8.45C14.85,6.74,18.21,0,25,0S35.15,6.74,38.12,11.51C41,16.06,43.39,20,48.19,20,49.19,20,50,20.38,50,21.16Z"/><path class="cls-1" d="M50,1.85A1.83,1.83,0,0,1,48.19,3.7c-4.8,0-7.24,3.93-10.07,8.48C35.15,17,31.79,22.37,25,22.37S14.85,17,11.89,12.2C9,7.62,6.61,3.7,1.81,3.7A1.83,1.83,0,0,1,0,1.85,1.83,1.83,0,0,1,1.81,0C8.59,0,12,7.24,14.91,12c2.85,4.58,5.28,8.5,10.09,8.5S32.25,16.58,35.08,12c3-4.77,6.33-12,13.11-12A1.83,1.83,0,0,1,50,1.85Z"/><path class="cls-1" d="M33.56,17a.78.78,0,0,1-1.55.07L31,6.13a.79.79,0,0,1,.7-.87.8.8,0,0,1,.86.72l1,10.92Z"/><path class="cls-1" d="M30,19.93a.79.79,0,0,1-.74.8A.78.78,0,0,1,28.4,20L27.59,4.26a.81.81,0,0,1,.74-.84.79.79,0,0,1,.82.76L30,19.89A.08.08,0,0,1,30,19.93Z"/><path class="cls-1" d="M19,6.05v.08L18,17.05a.78.78,0,1,1-1.55-.15L17.47,6a.8.8,0,0,1,.86-.72A.79.79,0,0,1,19,6.05Z"/><path class="cls-1" d="M22.4,4.22v0L21.6,20a.79.79,0,0,1-.82.75.8.8,0,0,1-.74-.84l.8-15.71a.78.78,0,1,1,1.56,0Z"/><path class="cls-1" d="M25.78,2.62v19a.78.78,0,1,1-1.56,0V2.62a.78.78,0,1,1,1.56,0Z"/><path class="cls-1" d="M9.71,16.52a.77.77,0,0,1-1.53.08L7.05,4.75A.77.77,0,1,1,8.58,4.6L9.71,16.44Z"/><path class="cls-1" d="M5.8,19.73a.78.78,0,0,1-.73.78.77.77,0,0,1-.8-.74l-.87-17a.79.79,0,0,1,.72-.82.77.77,0,0,1,.81.74L5.8,19.69Z"/><path class="cls-1" d="M43,4.67v.08L41.82,16.6a.77.77,0,1,1-1.53-.16L41.42,4.6A.77.77,0,0,1,43,4.67Z"/><path class="cls-1" d="M46.61,2.68a.06.06,0,0,1,0,0l-.87,17.05a.77.77,0,0,1-.8.74.79.79,0,0,1-.73-.82l.87-17a.77.77,0,0,1,.81-.74A.78.78,0,0,1,46.61,2.68Z"/></g></g></svg>