<svg xmlns="http://www.w3.org/2000/svg" viewBox="0 0 84.17 55.82"><defs><style>.cls-1,.cls-2,.cls-5{fill:#333;}.cls-1,.cls-2,.cls-3,.cls-4{stroke:#333;}.cls-1,.cls-2{stroke-linejoin:round;}.cls-2{stroke-linecap:round;}.cls-3,.cls-6{fill:#80c8dc;}.cls-3,.cls-4{stroke-miterlimit:10;}.cls-4{fill:#bfdc92;}</style></defs><title>Ресурс 1</title><g id="Слой_2" data-name="Слой 2"><g id="Слой_1-2" data-name="Слой 1"><path class="cls-1" d="M31.28,16.11c-4.31,2.63-3.94,5-1.88,8.41l-6-.82c3.31-2.48,2.95-6.44.32-8.09Z"/><path class="cls-1" d="M16.67,47.32c.26-4.55-.43-6.75-4.81-6.83l2.56-3.23c0,3.17,4.1,4.27,6.45,2.88Z"/><path class="cls-1" d="M12.14,5.61c-1.51,3.31-1.87,5.8,2.23,7.44l-5.83,1.5c2.54-3.49,1.27-5.29-1.76-7.26Z"/><path class="cls-1" d="M29.79,26c.3,3.5,1.14,5.34,4.85,5.17l-3,3.23c-.26-3.12-2-4.46-6.09-4.63Z"/><path class="cls-1" d="M35.21,37.18c-4.43,1.34-4.27,4.21-2.61,8.06l-7.84-6.1c5.27.16,6.72-.43,6.86-4.79Z"/><path class="cls-1" d="M24.42,16.08c-3.77-1.82-5.89-.85-7.29,2.86l-3.57-6.15c5.4,2.1,7.23,0,7.67-3.85Z"/><path class="cls-2" d="M3.93,43.5c4.19-.87,4.93-2.86,4.46-5.87l3.15,2.9c-2.94.69-3.64,2.11-3.21,6.2Z"/><circle class="cls-3" cx="27.87" cy="10.25" r="6.77"/><circle class="cls-3" cx="12.42" cy="17.58" r="4.92"/><circle class="cls-4" cx="8.75" cy="4.2" r="3.67"/><circle class="cls-4" cx="26.12" cy="26.17" r="3.67"/><circle class="cls-4" cx="24.76" cy="47.23" r="8.09"/><circle class="cls-3" cx="4.44" cy="47.41" r="3.94"/><circle class="cls-3" cx="11.41" cy="37.51" r="3.02"/><circle class="cls-3" cx="34.64" cy="34.21" r="3.02"/><path class="cls-5" d="M46.86,34h-.09l-.24,1.56h-2V15H47v5.62l-.12,2.72H47a7.43,7.43,0,0,1,5-2.15c4,0,6.16,2.81,6.16,7.16,0,4.81-3.17,7.62-6.68,7.62A7.54,7.54,0,0,1,46.86,34Zm8.69-5.68c0-3.1-1.22-5.16-4.18-5.16A6.44,6.44,0,0,0,47,25.27v7a6.38,6.38,0,0,0,4,1.62C53.6,33.9,55.55,31.82,55.55,28.34Z"/><path class="cls-6" d="M64.77,23.44H57.91V21.5H67.3V35.58H64.77Zm-1-6.75a2,2,0,1,1,2,1.86A1.86,1.86,0,0,1,63.76,16.69Z"/><path class="cls-5" d="M69.54,28.57a7.32,7.32,0,1,1,14.63,0,7.32,7.32,0,1,1-14.63,0Zm12,0c0-3.24-1.89-5.42-4.73-5.42s-4.72,2.18-4.72,5.42,1.89,5.36,4.72,5.36S81.58,31.79,81.58,28.57Z"/><line class="cls-1" x1="39.59" x2="39.59" y2="55.77"/><path class="cls-5" d="M44.44,36.94h.34v1.93h0l1.05-1h.38l-1.44,1.43v.53h-.34Zm.75,1.82.2-.22.94,1.26H46Z"/><path class="cls-5" d="M56.89,37.84h.27l0,.33h0a1,1,0,0,1,.73-.37c.46,0,.68.27.68.78V39.8h-.34V38.63c0-.37-.12-.54-.44-.54a.85.85,0,0,0-.62.34V39.8h-.33Z"/><path class="cls-5" d="M69.26,38.82a1,1,0,1,1,1,1A1,1,0,0,1,69.26,38.82Zm1.58,0c0-.45-.25-.75-.62-.75s-.62.3-.62.75.25.75.62.75S70.84,39.27,70.84,38.82Z"/><path class="cls-5" d="M81.54,37.84h.33L82.11,39c0,.18.06.35.08.53h0a5,5,0,0,1,.11-.53l.24-1h.33l.24,1c0,.18.09.35.12.53h0c0-.18,0-.35.09-.53l.23-1.14h.31l-.42,2h-.42l-.23-.94c0-.13-.06-.33-.1-.57h0a5.76,5.76,0,0,1-.1.57l-.22.94H82Z"/></g></g></svg>