<svg xmlns="http://www.w3.org/2000/svg" viewBox="0 0 203.95 135.6"><defs><style>.cls-1,.cls-2,.cls-5{fill:#333;}.cls-1,.cls-2,.cls-3,.cls-4{stroke:#333;}.cls-1,.cls-2{stroke-linejoin:round;}.cls-2{stroke-linecap:round;}.cls-3,.cls-6{fill:#80c8dc;}.cls-3,.cls-4{stroke-miterlimit:10;}.cls-4{fill:#bfdc92;}</style></defs><title>Ресурс 1</title><g id="Слой_2" data-name="Слой 2"><g id="Слой_1-2" data-name="Слой 1"><path class="cls-1" d="M75.34,39.17c-10.47,6.39-9.58,12.12-4.56,20.45l-14.56-2c8-6,7.16-15.64.76-19.66Z"/><path class="cls-1" d="M39.82,115.07c.64-11.07-1-16.43-11.69-16.6l6.21-7.86c.11,7.71,10,10.38,15.69,7Z"/><path class="cls-1" d="M28.8,13.65c-3.66,8-4.55,14.1,5.43,18.09L20.05,35.37c6.18-8.48,3.08-12.85-4.29-17.63Z"/><path class="cls-1" d="M71.73,63.28c.71,8.51,2.76,13,11.8,12.56l-7.35,7.85c-.65-7.58-4.89-10.83-14.82-11.25Z"/><path class="cls-1" d="M84.9,90.4C74.13,93.67,74.51,100.64,78.56,110L59.49,95.18c12.81.37,16.35-1.05,16.67-11.66Z"/><path class="cls-1" d="M58.66,39.1c-9.15-4.44-14.31-2.07-17.72,7l-8.67-15C45.39,36.21,49.84,31,50.9,21.73Z"/><path class="cls-2" d="M8.84,105.78c10.2-2.12,12-7,10.84-14.27l7.67,7c-7.14,1.68-8.85,5.14-7.81,15.09Z"/><circle class="cls-3" cx="67.06" cy="24.94" r="16.47"/><circle class="cls-3" cx="29.48" cy="42.74" r="11.97"/><circle class="cls-4" cx="20.56" cy="10.22" r="8.92"/><circle class="cls-4" cx="62.81" cy="63.64" r="8.92"/><circle class="cls-4" cx="59.49" cy="114.85" r="19.67"/><circle class="cls-3" cx="10.09" cy="115.29" r="9.59"/><circle class="cls-3" cx="27.02" cy="91.21" r="7.34"/><circle class="cls-3" cx="83.53" cy="83.19" r="7.34"/><path class="cls-5" d="M113.23,82.72H113l-.59,3.8h-4.89V36.37h6.15V50l-.3,6.62h.23a18.12,18.12,0,0,1,12.07-5.21c9.71,0,15,6.83,15,17.4,0,11.69-7.71,18.53-16.23,18.53C120.87,87.37,116.57,85.61,113.23,82.72Zm21.12-13.81c0-7.54-3-12.54-10.15-12.54-3.19,0-6.89,1.55-10.52,5.07v17a15.47,15.47,0,0,0,9.71,4C129.61,82.44,134.35,77.36,134.35,68.91Z"/><path class="cls-6" d="M156.78,57H140.11V52.29h22.82V86.52h-6.15Zm-2.45-16.42c0-2.67,2.08-4.51,4.89-4.51s4.89,1.84,4.89,4.51S162,45.1,159.22,45.1,154.33,43.34,154.33,40.59Z"/><path class="cls-5" d="M168.38,69.47c0-11.48,8.3-18,17.78-18S204,58,204,69.47s-8.3,17.9-17.79,17.9S168.38,80.82,168.38,69.47Zm29.27,0c0-7.89-4.59-13.17-11.49-13.17s-11.48,5.28-11.48,13.17,4.59,13,11.48,13S197.65,77.29,197.65,69.47Z"/><line class="cls-1" x1="95.56" x2="95.56" y2="135.6"/><path class="cls-5" d="M107.36,89.81h.81v4.7h0L110.75,92h.93l-3.51,3.46v1.29h-.81Zm1.82,4.44.49-.53,2.27,3H111Z"/><path class="cls-5" d="M137.63,92h.66l.07.8h0a2.45,2.45,0,0,1,1.79-.92c1.12,0,1.64.67,1.64,1.92v3H141V93.93c0-.9-.32-1.32-1.09-1.32a2,2,0,0,0-1.49.85v3.31h-.81Z"/><path class="cls-5" d="M167.69,94.4A2.35,2.35,0,1,1,170,96.88,2.33,2.33,0,0,1,167.69,94.4Zm3.86,0c0-1.09-.61-1.82-1.51-1.82s-1.52.73-1.52,1.82.61,1.81,1.52,1.81S171.55,95.49,171.55,94.4Z"/><path class="cls-5" d="M197.57,92h.8l.57,2.76c.09.44.16.85.21,1.3h0a11.11,11.11,0,0,1,.28-1.3l.58-2.47h.8l.57,2.47a11.61,11.61,0,0,1,.29,1.3h0c.08-.45.13-.86.22-1.3l.56-2.76h.75l-1,4.75h-1l-.54-2.27c-.08-.33-.16-.8-.24-1.4h0a12.27,12.27,0,0,1-.23,1.4l-.53,2.27h-1Z"/></g></g></svg>