<svg xmlns="http://www.w3.org/2000/svg" viewBox="0 0 159.51 153.04"><defs><style>.cls-1{fill:#F0F8FF;}</style></defs><title>mail</title><g id="Слой_2" data-name="Слой 2"><g id="Слой_1-2" data-name="Слой 1"><path id="mail" class="cls-1" d="M107.3,75.79c-.9-17.63-14-28.24-29.8-28.24h-.6c-18.24,0-28.36,14.35-28.36,30.65C48.54,96.44,60.78,108,76.83,108c17.89,0,29.66-13.11,30.51-28.61ZM77,31.77c12.19,0,23.65,5.39,32.07,13.83v0c0-4.05,2.72-7.11,6.51-7.11h1c5.91,0,7.13,5.6,7.13,7.37l0,63c-.42,4.12,4.25,6.25,6.84,3.6,10.12-10.39,22.21-53.42-6.28-78.35C97.69,10.87,62.05,14.7,43.1,27.77,23,41.66,10.06,72.42,22.59,101.3c13.65,31.51,52.71,40.91,75.93,31.53,11.75-4.74,17.18,11.15,5,16.34C85,157,33.7,156.23,9.71,114.69-6.5,86.63-5.63,37.27,37.35,11.69,70.23-7.88,113.58-2.47,139.72,24.84c27.33,28.54,25.73,82-.92,102.76-12.08,9.44-30,.25-29.9-13.5l-.12-4.5A44.88,44.88,0,0,1,77,122.81c-24.09,0-45.28-21.19-45.28-45.27C31.71,53.21,52.9,31.77,77,31.77h0"/></g></g></svg>