<svg xmlns="http://www.w3.org/2000/svg" viewBox="0 0 160.07 108.33"><defs><style>.cls-1{fill:#fff;}</style></defs><title>telegram</title><g id="Слой_2" data-name="Слой 2"><g id="Слой_1-2" data-name="Слой 1"><path id="telegram" class="cls-1" d="M149.49.88,6,44.34c-7.84,1.82-7.59,8-1.79,9.51l35.94,9L53.94,96.57c1.67,3.69,3,5.08,5.89,5.11s4.15-.84,7.27-3.05c3.65-2.74,9.2-7.06,18-13.89l37.39,22.11c6.88,3,11.84,1.46,13.56-5.12L159.48,9C162,.89,156.07-1.51,149.49.88ZM45.83,60.76l81.72-41c4-2.16,5.29.25,3.47,1.91L63.19,70.47,59.71,94.83Z"/></g></g></svg>